<?xml version="1.0" encoding="utf-8"?>
<!-- Generated by Mocodo 4.3.3 -->
<svg width="353" height="254" viewBox="0 0 353 254" xmlns="http://www.w3.org/2000/svg">
<rect x="0" y="0" width="353" height="254" fill="#FFFFFF" stroke="none" stroke-width="0"/>

<!-- Association ADD_TO_DICT -->
<g>
	<line x1="48" y1="53" x2="174" y2="53" stroke="#000000" stroke-width="1"/>
	<line x1="292" y1="53" x2="174" y2="53" stroke="#000000" stroke-width="1"/>
	<g>
		<path d="M214 18 a14 14 90 0 1 14 14 V44 h-108 V32 a14 14 90 0 1 14 -14" fill="#FFFFFF" stroke="#FFFFFF" stroke-width="0"/>
		<path d="M228 44 v30 a14 14 90 0 1 -14 14 H134 a14 14 90 0 1 -14 -14 V44 H108" fill="#FFFFFF" stroke="#FFFFFF" stroke-width="0"/>
		<rect x="120" y="18" width="108" height="70" fill="none" rx="14" stroke="#000000" stroke-width="1.5"/>
		<line x1="120" y1="44" x2="228" y2="44" stroke="#000000" stroke-width="1"/>
		<text x="127" y="36.6" fill="#000000" font-family="Courier New" font-size="14">ADD_TO_DICT</text>
		<text x="127" y="62.6" fill="#000000" font-family="Courier New" font-size="14">status</text>
		<text x="127" y="80.6" fill="#000000" font-family="Courier New" font-size="14">date_added</text>
	</g>
	<text x="92" y="69" fill="#000000" font-family="Courier New" font-size="12">0,N</text>
	<text x="233" y="45" fill="#000000" font-family="Courier New" font-size="12">0,N</text>
</g>

<!-- Association HAS -->
<g>
	<line x1="292" y1="183" x2="48" y2="183" stroke="#000000" stroke-width="1"/>
	<line x1="292" y1="53" x2="48" y2="183" stroke="#000000" stroke-width="1"/>
	<g>
		<path d="M54 157 a14 14 90 0 1 14 14 V183 h-40 V171 a14 14 90 0 1 14 -14" fill="#FFFFFF" stroke="#FFFFFF" stroke-width="0"/>
		<path d="M68 183 v12 a14 14 90 0 1 -14 14 H42 a14 14 90 0 1 -14 -14 V183 H40" fill="#FFFFFF" stroke="#FFFFFF" stroke-width="0"/>
		<rect x="28" y="157" width="40" height="52" fill="none" rx="14" stroke="#000000" stroke-width="1.5"/>
		<line x1="28" y1="183" x2="68" y2="183" stroke="#000000" stroke-width="1"/>
		<text x="35" y="175.6" fill="#000000" font-family="Courier New" font-size="14">HAS</text>
	</g>
	<text x="212" y="199" fill="#000000" font-family="Courier New" font-size="12">1,1</text>
	<text x="233" y="65.67" fill="#000000" font-family="Courier New" font-size="12">1,N</text>
</g>

<!-- Entity USER -->
<g>
	<g>
		<rect x="9" y="18" width="78" height="26" fill="#FFFFFF" stroke="none" stroke-width="0" opacity="1"/>
		<rect x="9" y="44" width="78" height="44" fill="#FFFFFF" stroke="none" stroke-width="0" opacity="1"/>
		<rect x="9" y="18" width="78" height="70" fill="none" stroke="#000000" stroke-width="1.5" opacity="1"/>
		<line x1="9" y1="44" x2="87" y2="44" stroke="#000000" stroke-width="1"/>
	</g>
	<text x="31" y="36.6" fill="#000000" font-family="Courier New" font-size="14">USER</text>
	<text x="14" y="62.6" fill="#000000" font-family="Courier New" font-size="14">username</text>
	<line x1="14" y1="65" x2="82" y2="65" stroke="#000000" stroke-width="1"/>
	<text x="14" y="80.6" fill="#000000" font-family="Courier New" font-size="14">password</text>
</g>

<!-- Entity VERB -->
<g>
	<g>
		<rect x="261" y="9" width="62" height="26" fill="#FFFFFF" stroke="none" stroke-width="0" opacity="1"/>
		<rect x="261" y="35" width="62" height="62" fill="#FFFFFF" stroke="none" stroke-width="0" opacity="1"/>
		<rect x="261" y="9" width="62" height="88" fill="none" stroke="#000000" stroke-width="1.5" opacity="1"/>
		<line x1="261" y1="35" x2="323" y2="35" stroke="#000000" stroke-width="1"/>
	</g>
	<text x="275" y="27.6" fill="#000000" font-family="Courier New" font-size="14">VERB</text>
	<text x="266" y="53.6" fill="#000000" font-family="Courier New" font-size="14">greek</text>
	<line x1="266" y1="56" x2="309" y2="56" stroke="#000000" stroke-width="1"/>
	<text x="266" y="71.6" fill="#000000" font-family="Courier New" font-size="14">french</text>
	<text x="266" y="89.6" fill="#000000" font-family="Courier New" font-size="14">group</text>
</g>

<!-- Entity CONJUGATION -->
<g>
	<g>
		<rect x="240" y="121" width="104" height="26" fill="#FFFFFF" stroke="none" stroke-width="0" opacity="1"/>
		<rect x="240" y="147" width="104" height="98" fill="#FFFFFF" stroke="none" stroke-width="0" opacity="1"/>
		<rect x="240" y="121" width="104" height="124" fill="none" stroke="#000000" stroke-width="1.5" opacity="1"/>
		<line x1="240" y1="147" x2="344" y2="147" stroke="#000000" stroke-width="1"/>
	</g>
	<text x="245" y="139.6" fill="#000000" font-family="Courier New" font-size="14">CONJUGATION</text>
	<text x="245" y="165.6" fill="#000000" font-family="Courier New" font-size="14">tense</text>
	<line x1="245" y1="168" x2="288" y2="168" stroke="#000000" stroke-width="1"/>
	<text x="245" y="183.6" fill="#000000" font-family="Courier New" font-size="14">mood</text>
	<text x="245" y="201.6" fill="#000000" font-family="Courier New" font-size="14">voice</text>
	<text x="245" y="219.6" fill="#000000" font-family="Courier New" font-size="14">person</text>
	<text x="245" y="237.6" fill="#000000" font-family="Courier New" font-size="14">form</text>
</g>
</svg>